<?xml version="1.0" standalone="no"?>
<!DOCTYPE svg PUBLIC "-//W3C//DTD SVG 20010904//EN"
 "http://www.w3.org/TR/2001/REC-SVG-20010904/DTD/svg10.dtd">
<svg version="1.0" xmlns="http://www.w3.org/2000/svg"
 width="1024.000000pt" height="683.000000pt" viewBox="0 0 1024.000000 683.000000"
 preserveAspectRatio="xMidYMid meet">
<metadata>
Created by potrace 1.16, written by Peter Selinger 2001-2019
</metadata>
<g transform="translate(0.000000,683.000000) scale(0.100000,-0.100000)"
fill="#000000" stroke="none">
<path d="M5250 6820 c8 -5 28 -10 43 -10 49 0 70 -18 63 -52 -5 -25 -3 -29 10
-24 9 3 41 9 72 12 32 4 75 17 97 29 44 25 122 41 158 31 17 -4 30 -21 46 -57
43 -103 26 -133 -111 -199 -85 -41 -96 -50 -131 -103 -29 -44 -49 -63 -85 -79
-26 -11 -57 -25 -68 -31 -36 -16 -46 -50 -28 -99 21 -58 5 -138 -47 -238 -34
-66 -39 -84 -40 -151 -1 -42 1 -81 5 -87 4 -7 9 -25 11 -42 3 -28 2 -29 -18
-18 -21 11 -21 10 -7 -8 8 -10 25 -29 39 -42 13 -12 22 -24 19 -27 -3 -3 -17
7 -32 22 -16 15 -35 28 -44 28 -9 0 -23 14 -32 30 -8 17 -21 34 -27 38 -7 4
-13 14 -13 22 0 7 -10 15 -22 17 -24 4 -25 8 -12 43 6 19 6 19 -8 1 -14 -17
-15 -18 -21 -2 -10 25 11 59 30 52 13 -5 14 -4 4 8 -8 10 -9 16 -1 21 19 12
11 26 -10 15 -14 -8 -26 -8 -41 0 -22 12 -21 35 2 35 17 0 29 15 29 35 -1 11
-3 11 -11 -3 -10 -17 -12 -15 -29 15 -9 18 -15 39 -12 47 4 10 1 13 -12 8 -12
-5 -25 2 -43 24 -16 19 -28 26 -33 19 -9 -14 -37 -3 -45 17 -3 9 0 20 7 25 9
6 6 10 -12 15 l-25 7 25 6 c14 3 25 13 25 23 0 9 6 22 13 29 28 28 1 39 -30
11 -10 -9 -18 -11 -18 -6 0 6 -7 10 -16 9 -9 0 -18 7 -19 17 -2 9 1 15 6 11
12 -7 11 8 -1 42 -7 17 -7 30 -1 33 5 4 -1 11 -15 18 -13 6 -24 7 -24 2 0 -13
-23 -6 -36 10 -10 13 -13 12 -24 -6 l-13 -21 -18 22 -18 21 6 -24 c6 -22 4
-23 -18 -11 -35 19 -40 32 -18 48 17 11 23 12 37 0 15 -12 16 -11 3 5 -8 11
-21 15 -32 12 -12 -4 -19 -1 -19 6 0 7 -3 9 -7 6 -3 -4 -12 -2 -20 4 -10 9
-13 8 -13 -4 0 -11 -9 -15 -30 -15 -28 1 -35 9 -30 33 8 39 7 41 -15 40 -13 0
-26 -3 -30 -7 -4 -4 -18 -1 -32 5 -23 10 -28 9 -41 -11 -8 -12 -20 -22 -28
-22 -7 0 -17 -8 -23 -17 -8 -14 -12 -15 -25 -4 -9 7 -25 11 -35 8 -13 -3 -21
1 -24 14 -3 11 -1 19 4 19 5 0 9 -4 9 -10 0 -5 5 -10 10 -10 12 0 -21 49 -33
50 -5 0 -5 -4 -2 -10 3 -5 1 -10 -4 -10 -6 0 -11 4 -11 9 0 5 -11 8 -25 6 -19
-2 -25 2 -25 16 0 11 -7 19 -15 19 -9 0 -12 -6 -9 -15 4 -8 -1 -17 -10 -21 -9
-3 -16 -12 -16 -20 0 -8 -4 -14 -10 -14 -5 0 -7 7 -4 15 4 8 1 15 -5 15 -6 0
-11 -6 -11 -14 0 -7 -9 -16 -20 -19 -23 -6 -36 -5 -33 3 1 3 -8 6 -20 7 -12 0
-17 -1 -10 -4 7 -2 9 -11 7 -18 -5 -11 -10 -10 -27 6 -18 16 -23 17 -25 6 -4
-21 -32 -30 -32 -11 0 8 5 12 10 9 22 -13 -16 52 -47 81 -18 17 -30 34 -26 38
3 3 1 6 -5 6 -7 0 -11 5 -9 11 3 17 -40 31 -46 15 -3 -8 1 -13 11 -12 9 0 16
-5 15 -11 -2 -7 2 -13 7 -13 6 0 10 -4 10 -9 0 -10 -83 29 -88 41 -2 4 -10 4
-18 1 -7 -3 -11 -10 -8 -15 5 -7 1 -7 -11 0 -26 14 -29 45 -4 37 23 -8 26 10
3 19 -10 4 -23 -3 -35 -16 l-19 -23 6 28 c4 17 2 27 -6 27 -6 0 -8 -4 -5 -10
3 -5 1 -10 -5 -10 -7 0 -14 9 -17 20 -5 20 -23 28 -23 10 0 -5 -7 -7 -15 -3
-10 3 -15 1 -13 -7 2 -7 -3 -15 -11 -18 -8 -3 -11 0 -7 7 5 7 1 9 -8 5 -19 -7
-20 0 -5 28 8 15 8 19 0 14 -6 -4 -11 -2 -11 3 0 6 -4 11 -9 11 -5 0 -7 -18
-6 -40 3 -37 -3 -45 -27 -41 -5 0 -8 -2 -8 -6 0 -5 -32 -8 -71 -8 -39 0 -73
-4 -76 -8 -3 -4 -12 -2 -21 5 -13 11 -15 10 -9 -4 3 -10 1 -21 -7 -25 -7 -5
-16 -15 -19 -23 -4 -10 -6 -8 -6 7 -1 12 -5 25 -11 28 -18 11 -11 38 8 33 24
-7 45 15 29 31 -17 17 -31 13 -16 -5 12 -15 10 -16 -19 -10 -26 6 -31 5 -26
-7 3 -8 0 -18 -7 -23 -7 -4 -15 -2 -17 4 -2 7 -10 12 -18 12 -10 0 -11 -6 -5
-23 7 -18 5 -26 -9 -35 -15 -9 -17 -8 -13 6 3 13 -2 18 -16 18 -15 0 -17 -4
-11 -16 15 -27 -4 -43 -41 -35 -28 6 -32 5 -21 -6 19 -20 15 -29 -14 -29 -18
0 -28 -6 -31 -21 -4 -13 -8 -16 -13 -9 -4 6 -18 12 -31 12 -13 1 -30 6 -36 11
-10 7 -13 4 -13 -11 0 -17 5 -20 26 -16 15 3 23 1 20 -5 -3 -5 0 -12 6 -14 7
-3 -1 -6 -19 -6 -39 -1 -63 -10 -63 -23 0 -6 12 -8 30 -5 17 4 32 2 36 -5 5
-8 2 -9 -9 -5 -23 9 -21 -2 6 -31 20 -23 21 -25 2 -17 -42 16 -68 19 -60 5 6
-10 2 -12 -14 -7 -13 3 -20 3 -17 0 3 -3 -2 -12 -12 -19 -15 -12 -15 -13 10
-14 14 0 28 5 30 12 3 8 9 8 24 0 18 -10 18 -11 2 -17 -21 -8 -24 -25 -4 -25
8 0 17 -7 20 -16 9 -22 8 -24 -9 -24 -8 0 -15 -4 -15 -10 0 -11 -32 -1 -42 14
-6 8 -8 8 -8 0 0 -6 -9 -21 -20 -34 -14 -17 -27 -21 -50 -18 -29 4 -30 3 -30
-33 0 -26 6 -41 18 -48 16 -10 16 -10 0 -11 -21 0 -23 -11 -5 -29 10 -11 7
-12 -15 -7 -21 5 -28 2 -33 -14 -3 -11 -12 -20 -19 -20 -26 0 -36 -25 -20 -48
13 -18 13 -21 0 -16 -7 3 -17 0 -21 -6 -5 -8 -12 -8 -24 2 -9 7 -2 -2 17 -19
20 -19 28 -33 20 -33 -8 0 -19 5 -26 12 -9 9 -12 8 -12 -5 0 -9 5 -17 11 -17
5 0 -3 -11 -18 -24 -21 -18 -31 -21 -41 -14 -9 8 -11 7 -6 -6 5 -12 -8 -31
-44 -64 -27 -26 -58 -52 -67 -58 -15 -8 -16 -14 -7 -30 8 -14 12 -15 12 -4 0
13 2 13 9 0 7 -10 4 -18 -10 -28 -25 -17 -24 -32 1 -25 11 3 20 0 20 -6 0 -6
-5 -11 -11 -11 -6 0 -8 -7 -5 -16 3 -8 2 -13 -3 -10 -4 3 -18 -4 -29 -15 -12
-11 -22 -16 -23 -12 0 4 -4 -1 -9 -12 -8 -19 -9 -19 -9 2 -1 17 -6 21 -23 18
-33 -7 -65 -55 -37 -55 6 0 8 -8 4 -19 -3 -11 -1 -22 5 -26 15 -9 12 -31 -6
-50 -15 -15 -15 -17 2 -36 11 -12 18 -36 18 -63 1 -25 5 -48 9 -53 5 -4 7 -2
5 6 -2 7 2 15 8 18 6 2 14 -9 17 -24 5 -29 -2 -48 -10 -25 -11 29 -53 -2 -53
-40 0 -22 -1 -22 -25 7 -18 22 -24 26 -25 13 0 -9 11 -29 25 -44 14 -15 23
-34 20 -43 -3 -9 6 -28 19 -43 14 -14 22 -29 19 -32 -4 -3 6 -20 22 -36 15
-16 30 -41 31 -56 4 -32 13 -43 23 -26 6 9 14 6 33 -11 15 -14 38 -27 52 -31
14 -3 26 -13 26 -21 0 -9 11 -20 24 -25 13 -5 27 -14 31 -20 4 -6 19 -11 33
-10 41 3 43 1 24 -20 -16 -20 -18 -20 -31 -3 -12 16 -13 16 -6 -7 4 -14 8 -37
8 -52 0 -16 5 -28 13 -28 19 0 46 -31 40 -47 -3 -8 -1 -11 4 -8 13 8 13 -1 0
-25 -7 -13 -7 -21 0 -25 6 -4 10 -3 9 2 -3 20 2 33 14 33 8 0 13 -14 14 -35 1
-32 -1 -35 -19 -29 -14 4 -18 2 -14 -5 5 -8 -4 -10 -32 -5 -22 3 -42 2 -46 -4
-3 -5 17 -37 44 -71 28 -35 48 -67 45 -72 -7 -11 10 -44 37 -71 15 -15 17 -22
8 -28 -8 -5 -9 -10 -2 -14 6 -3 12 -2 14 4 9 27 101 -93 146 -190 37 -82 83
-210 75 -210 -3 0 -1 -6 4 -12 5 -7 16 -39 23 -71 15 -64 7 -84 -24 -61 -11 8
-14 14 -7 14 7 0 9 5 6 11 -4 6 -13 8 -20 5 -15 -6 -30 28 -26 58 1 10 -2 15
-7 12 -6 -3 -15 9 -22 28 -14 42 -68 143 -81 151 -5 4 -9 25 -9 48 -1 57 -29
115 -78 160 -51 46 -78 49 -35 5 45 -48 82 -145 51 -132 -14 5 -69 78 -80 106
-8 19 -38 25 -38 7 0 -6 15 -29 33 -52 18 -23 39 -55 45 -72 13 -32 17 -35
-94 87 -16 18 -30 25 -41 21 -12 -5 -14 -3 -8 7 6 10 0 12 -24 8 -17 -2 -31 0
-31 5 0 26 -14 -8 -26 -65 -17 -81 -17 -99 1 -68 8 14 14 37 15 52 0 35 10 58
24 58 19 0 112 -101 134 -146 32 -64 51 -194 55 -379 2 -93 10 -218 17 -276
13 -98 12 -110 -5 -155 -10 -27 -30 -67 -43 -89 -19 -29 -27 -60 -31 -112 -4
-39 -10 -75 -14 -79 -4 -4 -2 -13 4 -20 9 -10 7 -15 -5 -20 -20 -8 -21 -24 -1
-24 12 0 14 -11 11 -55 -3 -38 -1 -59 9 -69 8 -7 12 -16 9 -19 -3 -3 -1 -20 5
-38 8 -31 9 -28 10 31 1 41 4 60 10 51 6 -10 11 -5 16 18 8 37 28 49 50 31 10
-9 15 -9 15 -1 0 6 5 11 10 11 6 0 10 -20 10 -44 0 -54 -19 -74 -55 -58 -28
13 -34 2 -10 -18 10 -8 15 -33 16 -74 1 -66 16 -143 18 -97 0 13 4 21 8 18 7
-8 33 38 33 59 0 8 4 14 10 14 18 0 120 -42 120 -49 0 -4 10 -13 23 -19 l22
-11 -22 0 c-25 -1 -32 -21 -8 -21 8 0 15 -4 15 -10 0 -5 -7 -7 -16 -3 -14 5
-16 1 -10 -31 5 -28 3 -38 -8 -42 -11 -4 -13 -14 -9 -37 3 -18 2 -29 -2 -25
-12 12 -35 -11 -28 -29 5 -12 1 -14 -14 -9 -13 4 -27 1 -35 -8 -10 -9 -20 -11
-31 -4 -13 7 -15 5 -11 -7 4 -10 0 -15 -12 -15 -11 0 -29 -3 -41 -6 -16 -4
-23 -2 -23 7 0 8 -4 21 -10 29 -7 12 -12 10 -29 -9 -12 -13 -21 -28 -21 -32 0
-4 -3 -16 -7 -26 -6 -17 -6 -17 14 0 14 12 23 15 28 8 3 -6 -2 -14 -12 -18
-10 -4 -21 -11 -25 -17 -5 -7 -8 -7 -8 2 0 27 -18 9 -25 -25 -4 -21 -15 -55
-26 -77 -10 -21 -16 -43 -13 -47 3 -5 0 -9 -5 -9 -6 0 -11 -5 -11 -12 0 -9 3
-9 12 0 7 7 20 12 30 12 9 0 21 7 26 16 5 8 17 17 28 19 10 2 21 4 24 4 3 1
-2 6 -10 12 -12 8 -8 10 15 6 25 -5 32 -1 43 21 6 14 12 31 12 38 0 15 25 25
45 18 8 -4 15 -1 15 5 0 6 14 11 30 11 25 0 30 -4 30 -23 0 -13 -3 -27 -7 -31
-4 -4 -8 -15 -8 -24 0 -9 -5 -16 -12 -15 -14 3 -13 -58 1 -68 12 -9 -3 -51
-16 -43 -8 5 -9 1 -5 -10 4 -10 0 -27 -8 -39 -11 -15 -12 -24 -3 -34 8 -10 7
-13 -6 -13 -13 0 -15 -9 -11 -46 3 -31 -2 -55 -14 -77 -16 -29 -21 -31 -67
-29 -71 4 -84 10 -91 43 -3 16 -12 29 -19 29 -17 0 -18 16 -2 26 8 5 6 11 -6
20 -10 7 -15 17 -11 23 3 6 1 11 -4 11 -14 0 -14 43 0 57 17 17 7 58 -14 57
-21 -2 -21 -3 -2 43 30 80 86 306 71 292 -7 -6 -28 -80 -47 -160 -5 -26 -17
-55 -24 -65 -13 -18 -14 -17 -15 13 0 17 -5 35 -11 39 -6 3 -8 16 -5 28 2 11
-2 30 -10 40 -16 23 -19 82 -3 91 14 9 10 122 -7 162 -7 18 -11 33 -9 33 3 0
0 11 -5 25 -6 16 -4 46 5 92 15 74 15 99 -4 154 -13 41 -4 76 28 111 11 11 25
43 31 70 5 27 28 80 49 117 40 67 85 181 73 181 -4 0 -16 -11 -26 -25 -48 -64
-47 -64 -42 -14 3 25 17 86 32 135 22 76 27 114 31 256 6 183 -1 234 -42 294
-14 20 -35 63 -46 96 -27 73 -44 87 -34 27 5 -24 9 -51 10 -60 0 -8 10 -31 22
-50 30 -49 53 -124 52 -167 -1 -20 -3 -28 -6 -17 -10 44 -87 190 -91 172 -3
-13 -10 -17 -23 -14 -26 7 -24 -2 12 -46 66 -80 107 -268 94 -427 -6 -62 -10
-80 -16 -65 -7 14 -8 7 -5 -25 2 -25 2 -37 -1 -27 -2 9 -10 17 -16 17 -13 0
-57 85 -57 109 0 11 -4 9 -16 -5 -15 -19 -15 -19 -11 3 3 13 0 20 -7 17 -6 -2
-26 20 -43 49 -52 82 -39 38 24 -82 48 -93 57 -117 58 -170 2 -33 -1 -61 -6
-61 -5 0 -12 -18 -15 -40 -4 -22 -13 -48 -21 -57 -13 -17 -14 -16 -10 10 2 15
1 27 -4 27 -4 0 -14 3 -22 6 -10 3 -22 -4 -31 -19 -15 -22 -15 -26 0 -56 9
-17 13 -39 10 -47 -3 -8 -2 -12 4 -9 6 3 10 2 10 -2 0 -5 -14 -14 -31 -20 -31
-12 -32 -16 -12 -69 2 -6 -5 -14 -16 -17 -12 -3 -21 0 -21 6 0 7 -12 23 -25
36 -20 18 -25 20 -25 7 0 -9 4 -16 10 -16 5 0 15 -18 21 -40 7 -22 20 -48 29
-58 24 -25 35 -117 17 -142 -8 -11 -17 -17 -22 -12 -5 4 -5 2 -2 -5 4 -6 9
-35 12 -65 3 -41 2 -49 -6 -34 -9 15 -13 16 -20 5 -13 -20 -11 -46 4 -61 8 -7
16 -28 20 -45 l6 -33 -62 5 c-34 3 -91 12 -127 19 -521 109 -567 118 -428 79
54 -15 98 -31 98 -36 0 -5 -11 -7 -25 -5 -19 4 -23 2 -15 -7 8 -9 7 -15 -2
-18 -10 -4 -10 -8 2 -16 10 -7 11 -11 3 -11 -7 0 -13 -7 -13 -15 0 -8 -7 -15
-16 -15 -11 0 -14 -6 -9 -21 5 -15 4 -19 -4 -15 -6 4 -15 -4 -21 -19 -13 -34
-13 -35 5 -35 19 0 19 -14 0 -30 -9 -7 -13 -21 -9 -35 3 -13 1 -25 -4 -29 -16
-10 -1 -99 20 -117 19 -17 25 -35 8 -24 -10 6 -12 -13 -16 -170 -1 -49 -3 -94
-4 -100 -6 -27 3 -91 13 -97 8 -5 4 -8 -8 -8 -18 -1 -18 -2 -4 -13 12 -9 16
-23 12 -52 -2 -22 -5 -68 -6 -102 -1 -35 -5 -63 -8 -63 -4 0 -9 -14 -13 -31
-3 -17 -10 -28 -16 -24 -30 19 20 -150 66 -223 37 -57 78 -82 134 -82 17 0 29
-4 26 -9 -8 -12 17 -71 30 -71 6 0 17 -7 24 -15 7 -8 15 -13 19 -11 18 12 61
-51 62 -91 0 -15 3 -22 6 -15 10 26 23 10 25 -30 l1 -43 7 45 7 45 1 -47 c2
-42 -1 -48 -18 -48 -11 0 -20 -4 -20 -10 0 -5 6 -7 14 -4 9 3 15 -4 18 -20 4
-20 1 -26 -16 -28 -12 -2 -22 -9 -22 -15 -3 -26 -6 -28 -13 -8 -7 17 -8 17
-13 -8 -3 -15 -1 -27 3 -27 5 0 9 -6 9 -12 0 -10 31 -14 113 -16 61 -1 122 -7
134 -14 12 -6 36 -30 53 -54 36 -51 61 -56 119 -22 40 23 75 20 65 -7 -4 -10
0 -15 10 -15 25 0 19 26 -11 49 l-26 21 20 23 c20 21 153 250 153 262 0 3 11
22 24 43 14 20 42 71 64 112 l40 74 134 23 c147 24 528 106 709 153 64 17 122
30 128 30 6 0 11 -10 11 -22 0 -23 1 -22 13 2 10 21 22 26 67 32 111 13 299 8
445 -12 81 -11 191 -20 245 -20 90 0 98 2 120 25 22 23 29 25 94 20 39 -3 100
-9 136 -15 36 -5 77 -10 92 -10 25 0 27 3 22 28 -5 25 -2 29 33 41 59 21 73
38 73 89 0 42 1 44 18 30 39 -34 45 -33 39 5 -6 42 -5 43 17 21 9 -8 24 -14
34 -12 17 3 18 7 8 48 -8 33 -17 46 -31 48 -11 2 -27 18 -36 37 -15 31 -14 34
3 49 18 16 24 76 12 123 -11 41 -70 65 -189 79 l-110 13 -38 43 c-21 24 -42
42 -48 40 -6 -1 -8 2 -4 8 3 5 -14 35 -39 65 -24 30 -46 60 -48 67 -7 19 -62
-3 -66 -26 -3 -11 5 -26 17 -35 21 -17 101 -120 101 -131 0 -4 -53 -19 -117
-35 -65 -15 -138 -33 -163 -41 -25 -8 -70 -19 -101 -24 -31 -6 -85 -22 -120
-36 -50 -20 -93 -27 -194 -34 -71 -5 -181 -18 -242 -30 -252 -46 -454 -70
-632 -77 -177 -6 -183 -6 -178 13 3 10 9 44 12 74 5 36 20 78 45 120 162 284
253 533 291 803 6 45 13 88 15 95 2 7 36 -14 86 -54 221 -174 327 -278 388
-379 23 -38 72 -89 145 -153 105 -91 110 -97 107 -131 -2 -20 1 -31 5 -26 11
14 31 16 165 15 l117 0 25 33 c56 73 84 274 48 339 -10 18 -50 93 -88 167 -84
162 -140 227 -302 347 -64 48 -142 112 -173 141 l-57 54 -54 -55 c-64 -64
-135 -102 -206 -112 -40 -5 -54 -3 -67 10 -9 9 -13 16 -8 16 5 0 14 -5 21 -12
6 -6 15 -9 19 -5 10 10 -8 26 -34 30 -35 5 -39 17 -6 17 63 0 177 80 213 150
22 43 24 123 5 160 -22 43 -70 73 -104 65 -26 -6 -31 -2 -60 49 -31 57 -55 76
-90 76 -11 0 -22 9 -26 21 -6 17 -9 19 -17 8 -7 -10 -8 -9 -4 6 7 26 -17 127
-38 160 -20 31 -53 36 -36 6 23 -44 7 -32 -20 14 -81 140 -83 147 -35 159 25
6 37 -2 109 -72 62 -61 92 -83 125 -92 74 -20 132 4 176 73 9 15 25 27 35 27
32 0 79 22 85 39 7 24 -4 53 -18 44 -5 -3 -15 1 -21 9 -6 8 -19 17 -29 21 -11
4 -21 16 -24 26 -3 11 -14 22 -26 25 -17 4 -19 8 -10 17 10 10 17 9 31 -4 10
-9 26 -17 34 -17 9 0 21 -7 28 -15 7 -8 19 -15 26 -15 8 0 14 -6 14 -13 0 -17
76 -10 106 10 12 8 25 29 28 49 l7 35 26 -21 c29 -23 42 -24 76 -9 30 14 47
48 47 97 0 20 12 72 27 115 20 58 31 77 45 77 10 0 18 -4 18 -10 0 -6 9 -6 24
0 13 5 34 6 47 3 18 -5 21 -3 16 10 -3 9 0 18 9 21 8 3 14 1 14 -5 0 -11 50
-7 83 6 20 8 20 10 7 35 -8 16 -8 18 5 14 8 -4 15 -1 15 5 0 9 5 9 21 1 17 -9
23 -8 34 7 13 17 14 17 24 -7 5 -14 10 -19 10 -12 1 20 29 14 36 -9 4 -12 10
-17 14 -12 3 6 15 9 25 7 11 -1 32 4 47 12 16 8 40 14 54 14 15 0 33 7 41 15
9 8 24 15 35 15 10 0 19 4 19 9 0 5 20 19 44 31 27 13 46 29 50 43 11 45 64
57 232 52 128 -4 154 -2 164 10 7 9 15 49 18 90 4 64 2 75 -11 75 -9 0 -20 -6
-24 -13 -17 -29 -124 -69 -194 -72 -38 -2 -69 1 -69 6 0 5 5 9 10 9 6 0 21 10
34 23 l23 24 -28 10 c-20 8 -29 8 -33 -1 -3 -8 -5 -8 -5 0 -1 6 6 18 16 25 14
12 17 12 21 0 4 -11 6 -11 13 0 6 10 9 11 9 2 0 -7 10 -13 22 -13 22 0 22 0
-2 17 -14 10 -29 18 -35 19 -5 0 -16 2 -22 2 -7 1 -13 8 -13 15 0 8 14 13 35
14 19 0 35 -3 35 -8 0 -5 4 -9 9 -9 5 0 9 14 9 31 -1 16 -4 26 -7 20 -4 -6
-20 -9 -36 -8 -23 2 -31 8 -33 25 -2 14 2 22 11 22 10 0 13 7 10 20 -4 16 -2
19 11 14 9 -3 16 -10 16 -16 0 -5 7 -16 15 -24 16 -16 22 -5 6 12 -5 5 -11 23
-13 39 -1 17 -7 33 -13 37 -6 5 -5 8 3 8 6 0 12 9 12 20 0 11 -7 20 -15 20 -8
0 -15 5 -15 11 0 6 8 8 19 4 12 -3 21 0 24 9 4 10 1 13 -9 9 -8 -3 -14 1 -14
10 0 8 4 17 9 19 5 2 18 23 29 48 14 29 22 38 22 25 l1 -20 15 20 c13 18 17
18 27 5 7 -8 25 -24 41 -34 44 -28 51 -12 53 135 1 132 17 257 36 294 5 11 25
37 43 57 30 34 33 42 28 81 -6 43 -5 44 48 90 69 59 100 66 162 37 l47 -23 24
23 c13 12 61 35 107 52 71 25 88 28 119 19 53 -16 83 -13 111 8 19 15 24 27
21 48 -8 54 83 123 126 96 17 -11 28 -73 13 -73 -15 0 -92 -71 -87 -81 4 -5
13 -35 21 -66 8 -32 25 -74 37 -93 19 -32 21 -49 21 -200 0 -154 -1 -168 -23
-206 -34 -60 -48 -65 -194 -69 -142 -4 -186 5 -207 46 -7 12 -18 70 -26 128
-20 154 -36 233 -46 219 -12 -20 -9 -236 4 -279 17 -57 0 -87 -53 -95 -48 -8
-61 -30 -31 -54 27 -23 189 -38 492 -46 257 -7 350 -2 350 22 0 19 -31 31
-115 43 -85 12 -121 43 -111 94 15 77 49 169 70 194 20 23 31 27 70 25 41 -1
48 2 73 33 15 19 35 56 43 82 13 40 19 49 42 51 16 2 45 -7 71 -22 35 -21 57
-26 109 -26 79 0 80 -1 173 -128 38 -51 73 -91 79 -89 15 5 9 100 -10 157 -8
25 -28 65 -44 90 -33 50 -38 81 -15 104 14 14 20 14 56 -1 80 -32 67 15 -41
147 -38 46 -90 160 -90 197 0 44 24 48 121 24 49 -12 96 -24 104 -28 28 -10
15 27 -23 70 -21 23 -44 56 -51 72 -6 17 -21 35 -33 40 -32 15 -34 35 -4 35
15 0 29 -6 31 -12 3 -8 24 -13 50 -14 54 -1 86 -22 205 -132 47 -43 96 -81
109 -85 30 -7 51 8 51 37 0 26 -92 168 -140 216 -32 32 -269 160 -296 160 -25
0 -47 39 -41 75 11 69 33 65 -376 65 l-370 0 33 -23 c61 -40 75 -78 73 -195
l-2 -104 27 5 c21 4 35 -3 64 -31 46 -44 55 -83 34 -142 -9 -25 -16 -61 -16
-81 0 -69 -56 -90 -105 -39 -25 26 -29 39 -30 88 -2 86 -14 132 -35 132 -24 0
-33 13 -65 100 -28 75 -80 146 -120 165 -11 6 -34 21 -51 34 -26 21 -36 23
-94 17 -36 -3 -78 -2 -94 2 -32 9 -55 36 -42 49 4 4 83 10 174 13 101 4 -26 7
-318 8 -316 1 -480 -2 -470 -8z m1341 -37 c13 -34 3 -97 -19 -116 -24 -20 -92
-29 -110 -15 -8 7 -24 17 -36 23 -14 7 -22 22 -24 43 -3 29 0 33 26 38 16 3
42 17 58 30 17 13 43 23 62 24 26 0 34 -5 43 -27z m364 5 c14 -6 27 -21 30
-32 14 -74 15 -94 1 -105 -19 -16 -67 -10 -76 9 -33 67 -42 102 -33 125 6 18
43 19 78 3z m-2195 -4733 c0 -9 -9 -15 -22 -15 -20 -1 -21 -2 -7 -10 12 -7 33
-3 73 16 33 15 64 23 74 19 14 -5 11 -10 -17 -23 -19 -10 -38 -28 -43 -40 -7
-20 -2 -30 27 -59 37 -37 42 -52 23 -71 -14 -14 -42 -16 -33 -2 3 6 2 10 -3
10 -11 0 -114 -31 -125 -37 -13 -8 14 -33 35 -33 31 0 15 -25 -18 -27 -68 -6
-155 -22 -231 -43 -71 -20 -128 10 -70 37 19 10 16 12 -30 18 -52 7 -52 8 -46
39 3 18 20 45 42 64 31 29 41 32 74 27 22 -3 37 -1 37 5 0 5 -6 10 -12 11 -9
0 -9 2 1 6 11 5 11 7 0 14 -10 6 -7 9 10 9 19 0 21 3 11 15 -10 12 -5 17 27
30 21 9 53 17 70 18 18 1 33 6 33 11 0 4 7 5 16 2 22 -9 85 4 78 15 -3 5 2 9
10 9 9 0 16 -7 16 -15z m-2384 -878 c8 3 14 0 14 -6 0 -6 7 -11 15 -11 23 0
84 -34 85 -47 0 -7 5 -13 10 -13 6 0 10 6 11 13 0 6 5 -1 10 -18 5 -16 7 -55
5 -85 -7 -74 10 -27 19 53 4 37 11 57 20 57 31 0 26 -121 -10 -207 -21 -54
-25 -85 -6 -54 7 11 9 11 13 0 3 -8 -2 -20 -11 -27 -9 -8 -10 -11 -3 -7 15 8
16 -7 0 -23 -16 -16 -29 -15 -22 2 3 8 0 17 -7 22 -8 4 -10 3 -5 -4 4 -7 2
-12 -3 -12 -6 0 -11 8 -11 17 0 9 -9 26 -19 37 -10 12 -29 46 -41 76 -12 30
-26 64 -32 74 -14 27 -58 157 -57 170 0 7 3 6 5 -1 3 -7 12 -9 20 -6z"/>
<path d="M8641 6785 c-12 -27 -53 -124 -91 -215 -97 -233 -156 -370 -244 -563
-42 -92 -76 -174 -76 -182 0 -29 110 -50 126 -24 3 6 24 9 45 7 l39 -4 14 51
c8 27 29 115 46 194 l32 144 -19 34 -20 34 55 127 c51 121 129 405 119 435 -2
7 -14 -10 -26 -38z"/>
<path d="M5300 6664 c0 -5 -13 -15 -30 -22 -16 -8 -49 -39 -73 -70 -24 -31
-68 -73 -97 -93 -51 -34 -56 -41 -72 -100 -16 -59 -16 -65 -1 -76 14 -11 20
-6 45 40 16 28 33 54 38 55 6 2 10 10 10 18 0 8 3 14 8 14 4 0 18 17 32 37 14
21 39 50 57 66 37 32 98 125 89 134 -3 4 -6 2 -6 -3z"/>
<path d="M7787 6155 c-15 -14 -27 -34 -27 -44 0 -9 -13 -42 -29 -72 -16 -30
-32 -71 -35 -91 -7 -38 -27 -61 -34 -40 -10 31 -102 -23 -102 -61 0 -10 -14
-75 -32 -144 -29 -114 -35 -126 -62 -140 -46 -24 -124 -101 -184 -182 -64 -86
-179 -307 -208 -398 -10 -33 -21 -60 -24 -58 -3 2 -12 0 -20 -5 -25 -15 1 -42
63 -66 119 -46 399 -115 630 -154 182 -31 266 -25 225 16 -12 13 -12 25 0 92
17 96 10 315 -13 422 -9 41 -30 110 -47 153 -17 44 -26 83 -22 87 9 8 175
-139 474 -420 74 -69 164 -153 200 -185 36 -32 88 -82 116 -112 28 -29 55 -53
61 -53 10 0 40 -78 36 -92 -2 -4 -5 -64 -8 -135 -3 -70 -12 -276 -21 -457 -8
-181 -11 -332 -7 -336 17 -15 61 -20 71 -7 5 6 13 66 16 132 4 66 13 253 22
415 8 162 17 322 18 355 4 73 3 70 21 55 18 -15 31 -7 19 12 -5 7 -13 31 -19
53 -8 32 -16 42 -41 50 -30 10 -135 101 -314 271 -47 45 -117 110 -156 145
-283 255 -414 383 -409 400 4 12 -6 31 -30 57 -19 22 -35 45 -35 52 0 7 15 34
34 60 53 74 75 124 85 191 14 102 -7 178 -63 227 -48 42 -108 45 -149 7z m117
-19 c40 -17 55 -51 66 -158 9 -78 9 -78 -29 -147 -21 -37 -46 -79 -56 -92
l-17 -24 7 35 c4 19 7 40 6 45 0 6 -2 32 -4 59 -4 50 -29 82 -41 51 -3 -8 -15
-15 -27 -15 -16 0 -20 4 -14 17 11 30 18 141 10 160 -8 18 -7 61 2 76 7 12 61
8 97 -7z m-560 -969 c-2 -23 -6 -57 -9 -76 -9 -50 -87 -191 -105 -191 -9 0
-21 -5 -28 -12 -44 -44 -27 125 22 216 34 63 97 123 117 110 4 -2 5 -23 3 -47z"/>
<path d="M1273 6006 c-42 -14 -55 -30 -80 -96 -17 -45 -22 -85 -26 -220 -5
-154 -17 -220 -39 -220 -5 0 -8 -5 -8 -11 0 -6 -10 -23 -22 -38 -13 -15 -34
-42 -48 -61 -14 -18 -30 -38 -36 -45 -7 -6 -23 -34 -37 -61 -20 -40 -26 -69
-30 -155 -4 -72 -2 -110 6 -118 15 -15 59 -14 82 3 18 13 18 18 6 65 -15 59
-8 125 19 186 10 22 21 50 25 63 7 24 53 72 69 72 5 0 36 14 70 32 50 25 72
31 121 30 33 -1 260 -4 504 -7 l443 -7 -18 26 c-11 14 -25 26 -32 26 -7 0 -23
6 -35 14 -22 15 -125 35 -295 57 -68 9 -103 9 -130 1 -20 -6 -91 -14 -157 -18
-137 -8 -147 -4 -160 63 -8 45 -42 123 -54 123 -19 0 -62 112 -77 200 -8 52
-18 98 -22 101 -4 4 -21 1 -39 -5z"/>
<path d="M9106 5903 c-3 -16 -8 -46 -12 -68 -4 -22 -11 -46 -17 -53 -16 -21 8
-59 52 -82 22 -11 44 -20 48 -20 8 0 6 146 -2 185 -5 22 -41 65 -55 65 -4 0
-11 -12 -14 -27z"/>
<path d="M9278 5537 c5 -84 -1 -87 -155 -87 l-123 0 17 -37 c12 -26 18 -64 19
-118 1 -106 10 -140 41 -161 25 -16 27 -16 40 2 7 10 13 27 13 39 0 11 9 39
21 60 11 22 23 58 27 80 6 33 12 41 32 44 37 5 88 68 95 116 10 61 2 118 -15
120 -12 2 -14 -9 -12 -58z"/>
<path d="M796 5565 c-15 -14 -38 -25 -51 -25 -14 0 -43 -7 -66 -17 -39 -15
-43 -15 -75 2 -19 10 -35 16 -37 14 -1 -2 -7 -13 -13 -24 -16 -29 -37 -29 -96
-1 -35 17 -56 22 -63 15 -16 -16 7 -40 71 -75 32 -18 58 -38 56 -45 -7 -29 11
-62 58 -107 27 -26 56 -63 64 -83 15 -35 14 -37 -12 -56 -15 -11 -43 -23 -63
-27 -20 -3 -55 -20 -77 -36 l-41 -29 29 -58 c16 -32 39 -94 50 -137 11 -44 22
-81 25 -84 9 -9 210 -12 223 -4 7 5 15 26 18 48 7 51 33 111 50 118 8 3 14 10
14 16 0 6 6 18 14 26 21 21 31 99 16 133 -19 48 -84 65 -138 37 -34 -17 -72
-5 -72 23 0 22 36 51 90 73 19 8 59 36 88 63 50 46 52 49 52 100 0 38 5 56 19
69 10 9 21 28 24 42 10 53 -107 75 -157 29z"/>
<path d="M1430 4835 c-7 -9 -10 -25 -6 -41 l7 -26 262 3 c144 2 382 0 529 -5
255 -7 330 -2 282 19 -58 25 -195 37 -459 40 -132 2 -285 8 -340 14 -149 16
-260 14 -275 -4z"/>
<path d="M1055 4630 c-98 -14 -95 -11 -95 -101 0 -77 -1 -80 -22 -77 -17 2
-24 13 -31 43 -4 22 -6 55 -3 73 l4 33 -52 -2 c-28 -1 -70 4 -94 10 -48 14
-77 2 -68 -28 3 -9 12 -86 20 -171 16 -154 20 -308 16 -575 -2 -152 2 -175 31
-175 17 0 44 32 34 42 -2 2 -7 53 -10 113 -4 61 -11 124 -16 140 -13 39 -32
360 -24 402 7 38 50 86 73 81 33 -7 43 -74 40 -269 -2 -146 0 -189 11 -202 16
-20 46 -22 58 -4 4 6 11 82 15 167 3 85 9 183 13 217 7 55 10 62 34 69 14 5
37 8 50 9 23 0 24 3 28 85 3 47 10 88 15 91 6 4 25 3 42 -2 40 -12 76 -12 58
0 -7 4 -12 14 -10 22 4 17 -43 21 -117 9z"/>
<path d="M5569 4303 c-12 -32 -28 -235 -29 -369 0 -84 -2 -93 -26 -117 -25
-25 -25 -27 -14 -103 5 -43 12 -79 14 -82 12 -11 48 24 66 66 44 97 61 221 56
407 -3 93 -5 182 -5 198 -1 22 -6 27 -26 27 -19 0 -28 -8 -36 -27z"/>
<path d="M10060 3775 c0 -19 -11 -65 -25 -102 -14 -37 -23 -73 -20 -81 2 -7 1
-11 -4 -8 -5 3 -16 -22 -26 -57 -9 -34 -28 -96 -41 -137 -29 -89 -30 -122 -5
-175 l18 -40 36 112 c21 62 37 122 37 133 0 11 4 20 9 20 5 0 11 10 14 22 4
12 9 20 12 16 3 -3 -6 -41 -20 -84 -13 -44 -25 -89 -25 -101 0 -13 -4 -23 -8
-23 -13 0 -35 -94 -23 -98 6 -2 11 -10 11 -18 0 -8 5 -14 11 -14 5 0 8 4 4 9
-3 5 2 27 12 48 23 49 22 48 33 37 7 -7 2 -35 -15 -84 -14 -40 -25 -85 -24
-99 0 -19 6 -12 20 28 10 29 16 57 14 61 -3 5 -1 10 3 12 4 1 19 37 31 78 13
41 28 86 33 100 9 24 10 24 20 6 8 -15 8 -21 0 -24 -7 -2 -12 -10 -12 -19 0
-8 -20 -74 -44 -146 -54 -160 -58 -219 -17 -267 l27 -32 59 187 c32 103 65
189 72 192 9 4 13 25 12 67 -1 59 -1 60 -11 24 -11 -41 -38 -52 -38 -15 0 12
11 53 25 91 20 54 25 88 25 157 l0 87 -82 86 c-45 47 -86 86 -90 86 -4 0 -8
-16 -8 -35z m120 -131 c-12 -32 -12 -57 0 -26 14 33 29 27 27 -12 -1 -19 -5
-32 -9 -30 -4 3 -7 -4 -6 -13 0 -20 -48 -192 -56 -200 -9 -10 -27 9 -22 24 3
8 1 11 -4 8 -6 -4 -18 1 -27 10 -14 14 -15 22 -6 46 7 19 8 29 1 29 -5 0 -8 6
-5 13 2 6 9 11 15 10 11 -3 36 57 27 65 -3 3 -5 -1 -5 -8 0 -7 -2 -11 -5 -8
-8 8 6 39 15 33 5 -3 14 12 21 32 15 50 18 53 34 53 11 0 12 -6 5 -26z"/>
<path d="M7636 3630 c-25 -55 -183 -553 -336 -1060 -16 -52 -50 -162 -75 -245
-26 -82 -44 -160 -42 -172 2 -13 0 -23 -4 -23 -18 0 -8 -27 41 -109 27 -46 47
-89 43 -95 -3 -6 -3 -8 2 -4 8 7 55 -55 55 -72 0 -6 4 -10 9 -10 5 0 12 -11
15 -25 4 -14 11 -23 16 -20 6 3 10 -1 10 -11 0 -25 90 -164 107 -164 25 0 47
-31 48 -68 0 -19 5 -37 11 -39 11 -4 36 70 153 442 27 88 102 327 166 530 213
675 214 678 197 673 -11 -3 -12 1 -12 30 1 15 2 15 15 -2 8 -11 15 -15 15 -10
0 8 -230 279 -378 444 l-40 45 -16 -35z"/>
<path d="M10176 3040 c-32 -96 -62 -181 -66 -189 -5 -9 5 -31 29 -62 20 -26
38 -48 41 -48 8 -1 60 160 60 184 0 29 -10 11 -25 -45 -17 -65 -44 -108 -55
-89 -12 18 -1 72 18 86 9 7 12 16 9 20 -4 3 0 17 8 29 8 13 12 30 9 38 -6 15
12 56 28 67 5 3 8 46 6 95 l-3 89 -59 -175z"/>
<path d="M10035 2868 c4 -10 -2 -25 -14 -37 -12 -12 -21 -30 -21 -41 0 -11 -4
-21 -10 -21 -5 -1 -15 -2 -21 -3 -7 0 -27 -47 -47 -102 l-34 -102 33 -51 c19
-28 36 -51 39 -51 6 1 121 349 120 366 0 6 -11 21 -26 35 -17 16 -23 18 -19 7z"/>
<path d="M8575 2820 c-24 -27 -12 -37 20 -16 24 16 25 16 25 -4 0 -11 -7 -20
-15 -20 -18 0 -18 0 0 -75 26 -104 -6 -185 -45 -110 -8 17 -16 32 -17 34 -2 2
-25 -14 -52 -37 -59 -50 -92 -60 -115 -36 -12 11 -15 25 -11 45 5 22 3 29 -9
29 -11 0 -16 -10 -16 -32 0 -52 -30 -99 -70 -112 -35 -11 -35 -11 -43 -86 -4
-41 -6 -96 -3 -122 3 -31 1 -48 -6 -48 -16 0 11 -29 43 -46 60 -31 266 -48
421 -35 24 2 64 74 94 168 22 69 25 94 23 220 l-1 142 -40 43 c-22 24 -44 54
-49 67 -5 13 -12 21 -15 18 -4 -3 -23 3 -42 14 -46 24 -55 24 -77 -1z"/>
<path d="M10033 2618 l-62 -181 34 -44 c40 -52 45 -55 56 -25 6 16 5 22 -6 22
-8 0 -15 9 -15 19 0 11 -6 21 -12 23 -10 4 -9 18 5 60 9 30 17 62 17 72 0 24
38 96 51 96 6 0 9 -8 7 -17 -4 -13 1 -18 18 -19 18 -2 24 6 34 41 11 41 11 44
-22 88 -18 25 -35 46 -38 46 -3 1 -33 -81 -67 -181z"/>
<path d="M9581 2593 c-1 -110 -7 -165 -21 -213 -10 -36 -19 -57 -19 -47 -1 26
-29 113 -57 178 -13 31 -24 72 -24 90 -1 32 -2 30 -20 -21 -11 -30 -22 -82
-26 -116 l-6 -60 62 -107 62 -106 -17 -50 c-15 -45 -15 -52 -1 -80 19 -36 20
-45 4 -35 -6 4 4 -19 22 -52 18 -32 41 -76 52 -96 10 -21 21 -38 23 -38 8 0
-15 52 -51 112 -19 33 -33 62 -31 64 2 2 25 -28 51 -67 26 -39 50 -68 53 -65
3 3 1 12 -5 19 -7 8 -9 16 -6 19 3 4 -2 20 -11 37 -15 30 -15 33 15 89 16 31
30 67 30 80 0 13 5 33 11 44 11 20 12 20 34 -7 l22 -29 7 28 c4 15 4 32 0 38
-4 7 -3 8 4 4 7 -4 12 -5 12 -2 0 8 -82 149 -112 194 -16 23 -27 42 -24 42 3
0 36 -43 72 -95 37 -52 70 -95 74 -95 4 0 10 9 13 21 4 16 3 18 -8 9 -15 -12
-31 3 -21 19 4 5 1 11 -6 13 -9 3 -7 21 7 69 11 35 19 67 17 72 -1 4 7 26 19
49 15 30 23 37 29 27 5 -7 6 -17 3 -23 -3 -5 -1 -6 4 -3 6 4 14 -1 18 -11 7
-16 8 -15 15 3 16 37 10 70 -20 109 -26 34 -30 37 -36 20 -22 -59 -43 -108
-43 -98 -1 6 6 30 14 53 8 22 11 41 7 41 -4 0 -20 -42 -36 -93 -16 -50 -35
-103 -42 -117 -12 -23 -13 -21 -8 25 5 50 5 50 -10 20 -19 -40 -20 -18 -1 36
36 102 23 153 -16 64 -11 -24 -25 -47 -31 -51 -7 -5 -8 -3 -2 7 5 8 14 29 20
47 12 34 2 44 -15 15 -9 -15 -11 -13 -12 12 -1 17 -1 45 0 63 2 19 -2 32 -9
32 -7 0 -10 7 -6 15 6 17 -2 45 -13 45 -4 0 -9 -66 -10 -147z"/>
<path d="M10124 2502 l-62 -187 40 -53 c22 -30 41 -52 42 -50 2 2 6 15 10 31
5 19 3 26 -6 25 -8 -2 -12 6 -10 22 1 19 0 21 -7 10 -21 -31 -21 16 -1 74 11
33 20 68 20 79 0 29 41 90 52 79 6 -6 6 -18 -2 -33 -10 -21 -9 -22 3 -7 10 13
16 15 25 6 9 -9 12 5 12 58 -1 60 -4 73 -28 101 l-27 32 -61 -187z"/>
<path d="M9824 2370 l-52 -150 30 -47 c39 -61 37 -60 48 -43 14 22 12 28 -7
26 -11 0 -17 5 -15 13 2 8 -2 17 -9 21 -8 6 -7 21 6 61 10 30 19 65 21 78 3
30 35 91 47 91 5 0 7 -12 3 -27 -3 -16 -3 -22 0 -15 8 18 22 15 26 -5 3 -12 8
-5 17 19 12 36 11 40 -20 83 -18 25 -35 45 -38 45 -3 0 -29 -67 -57 -150z"/>
<path d="M9910 2250 l-53 -158 32 -51 c18 -28 36 -51 40 -51 7 1 62 162 57
168 -2 2 -14 -26 -27 -62 -13 -36 -29 -66 -36 -66 -7 0 -13 6 -13 14 0 8 -5
16 -11 18 -7 2 -4 25 10 67 12 36 21 70 21 77 0 24 34 84 44 80 6 -2 10 -8 9
-13 -1 -5 7 -14 17 -21 16 -10 20 -7 29 20 9 26 7 35 -11 62 -59 85 -49 93
-108 -84z"/>
<path d="M10048 2273 c-3 -4 -24 -66 -48 -138 -23 -71 -47 -138 -52 -148 -7
-14 -1 -32 29 -77 20 -32 41 -56 45 -54 13 9 9 24 -7 24 -8 0 -15 8 -15 18 0
10 -5 23 -11 29 -19 19 49 221 79 231 6 2 12 -2 12 -8 0 -15 28 -42 33 -33 20
37 16 66 -14 106 -46 59 -46 60 -51 50z"/>
<path d="M9757 2172 c-3 -9 -26 -77 -52 -151 -57 -162 -59 -172 -40 -197 13
-17 14 -15 10 26 -5 57 3 89 17 69 8 -11 9 -11 5 2 -3 10 4 26 16 38 16 14 22
32 22 60 0 22 3 37 7 35 3 -2 9 0 13 6 9 15 25 12 25 -6 0 -8 6 -22 14 -30 13
-12 16 -9 26 21 12 37 9 46 -34 110 -19 28 -25 31 -29 17z"/>
<path d="M6275 2162 c-2 -2 12 -36 30 -75 18 -40 53 -117 78 -172 25 -55 57
-126 71 -157 14 -31 26 -61 26 -66 0 -5 7 -15 15 -22 8 -6 14 -15 13 -18 0 -4
5 -22 12 -39 12 -33 12 -33 81 -33 38 0 69 4 69 9 0 5 -22 56 -49 112 -27 57
-67 142 -88 189 -22 47 -60 126 -84 177 l-44 91 -63 4 c-35 2 -65 2 -67 0z"/>
<path d="M6443 2162 c-13 -2 -23 -5 -23 -8 0 -2 22 -48 49 -101 27 -54 75
-154 106 -223 32 -69 70 -153 86 -187 l29 -63 71 0 c39 0 68 3 66 8 -3 4 -29
59 -59 122 -30 63 -92 190 -138 282 l-83 166 -41 4 c-22 1 -51 2 -63 0z"/>
<path d="M6560 2156 c3 -2 68 -133 145 -290 l140 -285 68 0 c37 -1 67 2 67 7
0 4 -65 133 -144 287 l-143 280 -69 3 c-37 2 -66 1 -64 -2z"/>
<path d="M6728 2108 c23 -42 150 -286 259 -500 14 -27 18 -28 84 -28 l70 0
-39 73 c-22 39 -68 126 -102 192 -34 66 -71 134 -81 150 -9 17 -33 59 -53 95
l-35 65 -66 3 -67 3 30 -53z"/>
<path d="M6850 2151 c0 -5 15 -36 34 -68 18 -32 57 -103 86 -158 29 -55 75
-140 102 -190 27 -49 56 -105 65 -122 16 -32 18 -33 85 -33 37 0 68 3 68 8 0
4 -12 25 -25 47 -14 22 -25 45 -25 50 0 6 11 -9 25 -33 13 -23 31 -49 39 -57
15 -15 86 -21 86 -7 0 4 -11 25 -24 47 -14 22 -32 55 -42 73 -13 25 -19 30
-26 20 -6 -9 -8 -8 -6 7 1 11 0 25 -4 30 -3 6 -27 51 -53 100 -27 50 -72 130
-102 179 -29 49 -53 94 -53 101 0 7 -18 12 -46 14 -41 1 -45 -1 -34 -14 7 -8
19 -15 27 -15 13 0 13 -2 2 -17 -12 -14 -12 -16 0 -8 11 6 13 4 8 -7 -4 -12
-1 -14 14 -11 10 3 19 0 19 -6 0 -6 -4 -11 -9 -11 -15 0 4 -53 39 -116 18 -30
30 -57 28 -60 -4 -3 -112 178 -143 241 -9 16 -22 21 -73 23 -36 2 -62 -1 -62
-7z"/>
<path d="M10110 2048 c-18 -57 -42 -128 -55 -159 l-23 -57 25 -42 c14 -23 27
-39 30 -36 3 3 1 12 -6 19 -8 11 -6 28 9 72 11 32 20 67 20 78 0 22 40 97 51
97 5 0 13 -9 19 -20 15 -27 24 -25 36 8 9 24 6 34 -29 85 -22 31 -41 57 -42
57 -1 0 -17 -46 -35 -102z"/>
<path d="M9802 1931 c-23 -71 -39 -137 -36 -147 4 -15 4 -16 -4 -5 -10 14 -14
7 -28 -54 -4 -17 -3 -17 6 -5 9 13 10 12 8 -5 -3 -26 47 -111 57 -95 4 6 2 17
-4 24 -6 7 -9 22 -5 32 5 15 4 16 -4 5 -9 -12 -13 -10 -23 13 -12 25 -10 34
16 84 16 31 30 71 31 89 1 40 30 76 43 54 5 -7 6 -21 4 -31 -9 -34 33 -11 46
25 11 31 9 37 -24 89 -20 31 -37 56 -38 56 -1 0 -21 -58 -45 -129z"/>
<path d="M10185 1836 l-50 -148 40 -74 c21 -41 35 -77 32 -81 -4 -3 -7 -1 -7
5 0 14 -69 92 -81 92 -5 0 -9 -7 -9 -15 0 -8 -11 -43 -24 -77 -86 -223 -90
-238 -76 -276 14 -40 71 -132 81 -132 4 0 9 8 12 18 3 9 35 100 71 202 43 122
66 200 66 230 0 34 -3 41 -12 32 -15 -15 -28 -15 -28 -1 0 6 -10 19 -21 28
-14 12 -19 24 -15 37 3 10 5 21 5 24 -1 3 12 27 30 54 19 31 27 54 22 59 -6 6
-4 24 5 47 9 21 14 57 12 81 -3 39 -7 32 -53 -105z m-45 -355 c0 -10 7 -21 15
-25 23 -8 19 -30 -27 -132 -39 -87 -58 -114 -58 -80 0 8 -7 16 -15 20 -23 8
-18 33 20 101 25 46 31 65 23 73 -9 9 -9 18 0 37 14 29 42 34 42 6z"/>
<path d="M9930 1929 c0 -3 -26 -82 -59 -177 l-58 -171 37 -61 c29 -47 39 -57
44 -44 4 10 2 20 -4 24 -6 4 -20 24 -31 44 l-20 38 32 56 c19 33 32 69 31 85
-3 34 14 67 33 67 8 0 15 -9 15 -19 0 -10 7 -22 16 -25 20 -8 18 -9 32 32 10
30 8 38 -28 95 -22 34 -40 59 -40 56z"/>
<path d="M10020 1790 c0 -3 -27 -84 -59 -180 l-59 -175 38 -58 c22 -32 42 -53
45 -46 4 5 -1 16 -11 24 -11 7 -16 16 -12 20 3 4 -3 16 -13 26 -24 24 -20 43
22 111 16 26 26 54 23 63 -10 24 16 76 35 73 9 -2 15 -11 15 -20 -1 -9 7 -19
17 -21 14 -4 21 3 28 30 9 32 6 41 -29 97 -22 33 -40 59 -40 56z"/>
<path d="M9795 1528 c-2 -7 -16 -47 -31 -88 -14 -41 -32 -94 -38 -117 -6 -23
-15 -45 -19 -49 -4 -4 -7 -23 -7 -43 0 -20 -7 -76 -14 -126 l-13 -90 40 -70
c74 -126 107 -197 107 -226 0 -29 -2 -30 -52 -33 -29 -2 -31 -15 -7 -41 17
-17 35 -25 59 -25 20 0 46 -7 58 -16 13 -9 25 -14 27 -12 3 2 33 89 69 194 35
104 75 219 88 255 l25 65 -23 30 c-13 16 -24 34 -24 39 0 6 -13 26 -28 45
l-28 33 -38 -109 c-70 -206 -108 -304 -117 -304 -5 0 -9 7 -9 15 0 15 46 159
60 185 14 28 21 90 10 90 -5 0 -11 -10 -11 -22 -1 -15 -3 -18 -6 -7 -4 18 41
92 51 82 6 -6 10 15 9 44 -1 7 3 11 7 8 4 -3 11 7 14 21 5 20 -1 40 -26 80
-18 30 -35 54 -38 54 -3 0 -27 -66 -54 -148 -55 -165 -86 -242 -98 -242 -14 0
-9 23 38 150 25 69 57 160 71 202 l25 77 -32 55 c-33 59 -38 64 -45 44z"/>
<path d="M6985 1500 c-275 -3 -487 -8 -472 -11 49 -11 1001 -5 1007 6 6 12 62
12 -535 5z"/>
<path d="M10218 1410 c-29 -96 -195 -580 -242 -709 -26 -68 -45 -126 -42 -128
3 -3 53 13 113 35 59 22 125 46 147 54 21 7 40 17 42 23 3 6 3 183 2 395 -3
376 -3 384 -20 330z"/>
<path d="M4102 199 c4 -11 40 -14 196 -14 176 0 192 -1 192 -17 0 -20 11 -23
26 -9 8 8 86 7 654 -13 69 -3 280 -7 470 -11 190 -3 363 -8 385 -10 22 -2 122
-5 223 -7 100 -2 182 -6 182 -11 0 -4 76 -6 170 -4 93 3 172 2 175 -1 3 -3 13
-7 22 -8 12 -2 13 0 4 9 -8 8 -84 14 -229 19 -303 9 -538 17 -812 28 -268 11
-946 37 -1155 45 -77 2 -223 7 -324 11 -156 6 -183 5 -179 -7z"/>
<path d="M6826 101 c-6 -8 13 -11 71 -10 43 1 98 0 123 -4 25 -3 137 -9 250
-12 113 -3 215 -8 228 -11 14 -4 22 -2 22 6 0 9 19 11 76 5 108 -10 223 -15
504 -20 135 -3 270 -8 300 -12 30 -3 141 -6 245 -5 105 0 195 -3 200 -8 10 -7
525 -25 669 -22 73 1 96 6 85 16 -2 3 -151 8 -329 12 -179 4 -424 11 -545 15
-121 4 -319 10 -440 13 -289 8 -740 24 -835 30 -41 3 -197 8 -346 12 -201 5
-273 4 -278 -5z"/>
</g>
</svg>
